<svg id="visual" viewBox="0 0 900 900" width="900" height="900" xmlns="http://www.w3.org/2000/svg" xmlns:xlink="http://www.w3.org/1999/xlink" version="1.1"><path d="M836 900L831.5 862.5C827 825 818 750 819.5 675C821 600 833 525 833 450C833 375 821 300 818 225C815 150 821 75 824 37.5L827 0L900 0L900 37.5C900 75 900 150 900 225C900 300 900 375 900 450C900 525 900 600 900 675C900 750 900 825 900 862.5L900 900Z" fill="#0066ff"></path><path d="M764 900L759.5 862.5C755 825 746 750 747.5 675C749 600 761 525 765.5 450C770 375 767 300 764 225C761 150 758 75 756.5 37.5L755 0L828 0L825 37.5C822 75 816 150 819 225C822 300 834 375 834 450C834 525 822 600 820.5 675C819 750 828 825 832.5 862.5L837 900Z" fill="#0087e9"></path><path d="M557 900L558.5 862.5C560 825 563 750 578 675C593 600 620 525 630.5 450C641 375 635 300 626 225C617 150 605 75 599 37.5L593 0L756 0L757.5 37.5C759 75 762 150 765 225C768 300 771 375 766.5 450C762 525 750 600 748.5 675C747 750 756 825 760.5 862.5L765 900Z" fill="#0098c5"></path><path d="M368 900L374 862.5C380 825 392 750 396.5 675C401 600 398 525 411.5 450C425 375 455 300 446 225C437 150 389 75 365 37.5L341 0L594 0L600 37.5C606 75 618 150 627 225C636 300 642 375 631.5 450C621 525 594 600 579 675C564 750 561 825 559.5 862.5L558 900Z" fill="#009a7f"></path><path d="M314 900L320 862.5C326 825 338 750 345.5 675C353 600 356 525 369.5 450C383 375 407 300 398 225C389 150 347 75 326 37.5L305 0L342 0L366 37.5C390 75 438 150 447 225C456 300 426 375 412.5 450C399 525 402 600 397.5 675C393 750 381 825 375 862.5L369 900Z" fill="#14996f"></path><path d="M242 900L249.5 862.5C257 825 272 750 285.5 675C299 600 311 525 321.5 450C332 375 341 300 329 225C317 150 284 75 267.5 37.5L251 0L306 0L327 37.5C348 75 390 150 399 225C408 300 384 375 370.5 450C357 525 354 600 346.5 675C339 750 327 825 321 862.5L315 900Z" fill="#009a7f"></path><path d="M188 900L186.5 862.5C185 825 182 750 171.5 675C161 600 143 525 143 450C143 375 161 300 174.5 225C188 150 197 75 201.5 37.5L206 0L252 0L268.5 37.5C285 75 318 150 330 225C342 300 333 375 322.5 450C312 525 300 600 286.5 675C273 750 258 825 250.5 862.5L243 900Z" fill="#0098c5"></path><path d="M80 900L90.5 862.5C101 825 122 750 114.5 675C107 600 71 525 62 450C53 375 71 300 89 225C107 150 125 75 134 37.5L143 0L207 0L202.5 37.5C198 75 189 150 175.5 225C162 300 144 375 144 450C144 525 162 600 172.5 675C183 750 186 825 187.5 862.5L189 900Z" fill="#0087e9"></path><path d="M0 900L0 862.5C0 825 0 750 0 675C0 600 0 525 0 450C0 375 0 300 0 225C0 150 0 75 0 37.5L0 0L144 0L135 37.5C126 75 108 150 90 225C72 300 54 375 63 450C72 525 108 600 115.5 675C123 750 102 825 91.5 862.5L81 900Z" fill="#0066ff"></path></svg>